<svg xmlns="http://www.w3.org/2000/svg" height="800" width="1200" viewBox="-31.293585 -13.965075 271.21107 83.79045"><g stroke-width=".2646"><path fill="#ef5461" d="M97.2346 21.8296V.0016h6.8745l.137 27.746 12.859-15.575h4.352c2.3936 0 4.3484.0893 4.344.1984-.004.1092-2.8574 3.6402-6.3399 7.8467-3.7892 4.5771-6.2562 7.7715-6.1435 7.9552.1036.1688 2.9268 3.611 6.2738 7.6494 3.347 4.0383 6.1251 7.4534 6.1736 7.589.0522.146-1.6967.2466-4.2883.2466h-4.3765l-12.855-15.56-.1402 15.56h-6.8713zm37.389 21.337c-2.8162-.9732-4.6488-2.7453-5.5052-5.3237-.3638-1.0954-.4134-2.5839-.3456-10.366l.0792-9.0868.7053-1.3229c.9134-1.7133 2.6572-3.3896 4.3218-4.1545 1.3115-.6027 1.4297-.6087 13.692-.6863l12.369-.0783v31.51l-11.972-.009c-10.808-.008-12.106-.0547-13.344-.4828zm18.375-15.185l-.0697-8.7974-6.8342-.0707c-4.0997-.0424-7.2395.0385-7.8472.2021-.598.161-1.3481.6544-1.831 1.2043l-.818.9316v6.3017c0 6.1003.019 6.3295.5954 7.1738 1.2127 1.7765 1.6058 1.852 9.6567 1.852h7.2176zm12.233-6.1516V.002h6.8792v43.656h-6.8792zm18.157 21.395c-2.407-.7391-4.0225-2.0972-5.271-4.4309-.57-1.0654-.5827-1.2997-.5827-10.746 0-9.5566.006-9.6702.6116-10.899.8509-1.7273 2.4761-3.3143 4.2421-4.1423l1.4963-.7015 24.739-.1566v31.51l-11.972-.0184c-9.843-.0152-12.202-.0889-13.262-.4146zm18.293-15.244l-.0697-8.7974h-7.4083c-10.456 0-9.9219-.4662-9.9219 8.6668 0 5.9989.0197 6.2327.5953 7.076 1.2126 1.7765 1.6058 1.852 9.6567 1.852h7.2176z"/><path fill="#76777a" d="M58.2396 52.5396c-1.3997-1.8264-2.5449-3.375-2.5449-3.4413 0-.0663 3.304-.1572 7.3422-.202 7.2005-.08 7.3589-.0934 8.2061-.6977 1.1282-.8047 1.6497-1.8562 1.6497-3.3264v-1.1907l-17.859-.1584-1.4781-.6931c-1.8788-.8811-3.2977-2.3-4.1788-4.1788l-.6932-1.4781v-9.2604c0-8.9322.0203-9.3043.5718-10.498.8098-1.7522 2.544-3.5246 4.2856-4.38l1.4926-.733 24.739-.1566v18.391c0 17.767-.018 18.439-.5313 19.811-.7556 2.0194-2.089 3.4508-4.1693 4.4757l-1.768.871-12.519.1665zm14.653-24.645v-8.882l-7.4868.0846c-8.2856.0936-8.3771.1118-9.4582 1.8849-.4703.7714-.5156 1.3643-.5165 6.7626-.0011 5.5855.0312 5.9744.5741 6.9404.358.6369.9824 1.2249 1.6536 1.5572 1.0005.4952 1.5907.5339 8.1561.534l7.0776.0003zm-66.688 15.401c-2.3635-.6374-4.5449-2.5326-5.6391-4.8989C.0219 37.2212 0 36.8142 0 27.9137v-9.2604l.6913-1.4552c.8794-1.8511 2.3524-3.3241 4.2035-4.2035l1.4552-.6913 8.9297-.0822 8.9297-.0821V0h6.8792v43.656l-11.84-.0179c-8.4727-.0128-12.182-.1102-13.044-.3425zm18.005-15.382V19.05l-6.9453.002c-3.8199.0008-7.3688.1191-7.8864.263-.5176.1437-1.2915.6269-1.7198 1.0736l-.7787.8122-.0804 6.1262c-.0442 3.3694-.0145 6.3887.066 6.7097.2333.9292 1.4398 2.1867 2.3515 2.4506.4609.1334 4.0229.2533 7.9156.2664l7.0776.024zm12.171 0v-15.743h6.8792v31.485h-6.8792zm48.683 0v-15.743h6.8792v31.485h-6.8792zm-48.683-24.474V0h6.8792v6.8792h-6.8792zm48.683 0V0h6.8792v6.8792h-6.8792z"/></g></svg>